<svg width="598" height="312" viewBox="0 0 598 312" fill="none" xmlns="http://www.w3.org/2000/svg">
<g opacity="0.59" clip-path="url(#clip0_431_945)">
<g opacity="0.67">
<path opacity="0.5" d="M238.92 235.849L574.195 144.228" stroke="#D48E49" stroke-width="0.12158" stroke-miterlimit="10" stroke-linecap="round"/>
<path d="M506.914 59.1241L577.452 184.837" stroke="#D48E49" stroke-width="0.202633" stroke-miterlimit="10" stroke-linecap="round"/>
<path d="M65.2686 217.801L226.14 157.764" stroke="#D48E49" stroke-width="0.202633" stroke-miterlimit="10" stroke-linecap="round"/>
<path d="M506.914 240.863L208.224 157.764" stroke="#D48E49" stroke-width="0.202633" stroke-miterlimit="10" stroke-linecap="round"/>
<path d="M378.993 219.806L577.452 260.666" stroke="#D48E49" stroke-width="0.202633" stroke-miterlimit="10" stroke-linecap="round"/>
<path d="M400.293 221.185L65.2686 266.306" stroke="#D48E49" stroke-width="0.202633" stroke-miterlimit="10" stroke-linecap="round"/>
<path d="M383.754 423.353L577.452 309.422" stroke="#D48E49" stroke-width="0.202633" stroke-miterlimit="10" stroke-linecap="round"/>
<path d="M539.614 70.0284L65.2686 240.236" stroke="#D48E49" stroke-width="0.202633" stroke-miterlimit="10" stroke-linecap="round"/>
<path d="M237.542 276.834L65.2686 280.344" stroke="#D48E49" stroke-width="0.202633" stroke-miterlimit="10" stroke-linecap="round"/>
<path d="M208.224 276.834L577.452 283.352" stroke="#D48E49" stroke-width="0.202633" stroke-miterlimit="10" stroke-linecap="round"/>
<path d="M216.994 385.877L577.452 294.632" stroke="#D48E49" stroke-width="0.202633" stroke-miterlimit="10" stroke-linecap="round"/>
<g opacity="0.5">
<path opacity="0.5" d="M506.914 55.1133L577.452 180.952" stroke="#D48E49" stroke-width="0.12158" stroke-miterlimit="10" stroke-linecap="round"/>
<path opacity="0.5" d="M65.2686 213.915L226.14 153.754" stroke="#D48E49" stroke-width="0.12158" stroke-miterlimit="10" stroke-linecap="round"/>
<path opacity="0.5" d="M506.914 236.852L208.224 153.754" stroke="#D48E49" stroke-width="0.12158" stroke-miterlimit="10" stroke-linecap="round"/>
<path opacity="0.5" d="M378.993 215.795L577.452 256.78" stroke="#D48E49" stroke-width="0.12158" stroke-miterlimit="10" stroke-linecap="round"/>
<path opacity="0.5" d="M400.293 217.299L65.2686 262.295" stroke="#D48E49" stroke-width="0.12158" stroke-miterlimit="10" stroke-linecap="round"/>
<path opacity="0.5" d="M383.754 419.342L577.452 305.536" stroke="#D48E49" stroke-width="0.12158" stroke-miterlimit="10" stroke-linecap="round"/>
<path opacity="0.5" d="M539.614 66.0176L65.2686 236.351" stroke="#D48E49" stroke-width="0.12158" stroke-miterlimit="10" stroke-linecap="round"/>
<path opacity="0.5" d="M237.542 272.949L65.2686 276.458" stroke="#D48E49" stroke-width="0.12158" stroke-miterlimit="10" stroke-linecap="round"/>
<path opacity="0.5" d="M208.224 272.949L577.452 279.341" stroke="#D48E49" stroke-width="0.12158" stroke-miterlimit="10" stroke-linecap="round"/>
<path opacity="0.5" d="M216.994 381.992L577.452 290.747" stroke="#D48E49" stroke-width="0.12158" stroke-miterlimit="10" stroke-linecap="round"/>
</g>
<g opacity="0.5">
<path opacity="0.5" d="M506.914 62.1321L577.452 187.845" stroke="#D48E49" stroke-width="0.12158" stroke-miterlimit="10" stroke-linecap="round"/>
<path opacity="0.5" d="M65.2686 220.808L226.14 160.772" stroke="#D48E49" stroke-width="0.12158" stroke-miterlimit="10" stroke-linecap="round"/>
<path opacity="0.5" d="M506.914 243.87L208.224 160.772" stroke="#D48E49" stroke-width="0.12158" stroke-miterlimit="10" stroke-linecap="round"/>
<path opacity="0.5" d="M378.993 222.814L577.452 263.674" stroke="#D48E49" stroke-width="0.12158" stroke-miterlimit="10" stroke-linecap="round"/>
<path opacity="0.5" d="M400.293 224.193L65.2686 269.314" stroke="#D48E49" stroke-width="0.12158" stroke-miterlimit="10" stroke-linecap="round"/>
<path opacity="0.5" d="M539.614 73.0364L65.2686 243.244" stroke="#D48E49" stroke-width="0.12158" stroke-miterlimit="10" stroke-linecap="round"/>
<path opacity="0.5" d="M237.542 279.842L65.2686 283.352" stroke="#D48E49" stroke-width="0.12158" stroke-miterlimit="10" stroke-linecap="round"/>
<path opacity="0.5" d="M208.224 279.842L577.452 286.36" stroke="#D48E49" stroke-width="0.12158" stroke-miterlimit="10" stroke-linecap="round"/>
<path opacity="0.5" d="M216.994 388.885L577.452 297.64" stroke="#D48E49" stroke-width="0.12158" stroke-miterlimit="10" stroke-linecap="round"/>
</g>
<path d="M71.0322 216.046V365.823L75.6679 368.205V214.291L71.0322 216.046Z" stroke="#D48E49" stroke-width="0.202633" stroke-miterlimit="10" stroke-linecap="round"/>
<path d="M75.668 214.291L80.9301 215.419V366.701L75.668 368.205" stroke="#D48E49" stroke-width="0.202633" stroke-miterlimit="10" stroke-linecap="round"/>
<path d="M228.271 382.995V163.279L238.921 166.287V380.363L228.271 382.995Z" stroke="#D48E49" stroke-width="0.202633" stroke-miterlimit="10" stroke-linecap="round"/>
<path d="M228.271 163.279L218.123 166.413V379.862L228.271 382.995V163.279Z" stroke="#D48E49" stroke-width="0.202633" stroke-miterlimit="10" stroke-linecap="round"/>
<path d="M278.011 238.481V387.381L285.653 389.387V237.479L278.011 238.481Z" stroke="#D48E49" stroke-width="0.202633" stroke-miterlimit="10" stroke-linecap="round"/>
<path d="M285.653 237.479L293.547 238.607V386.629L285.653 389.387" stroke="#D48E49" stroke-width="0.202633" stroke-miterlimit="10" stroke-linecap="round"/>
<path d="M392.023 418.465V222.438L381.123 223.817V415.457L392.023 418.465Z" stroke="#D48E49" stroke-width="0.202633" stroke-miterlimit="10" stroke-linecap="round"/>
<path d="M392.023 222.438L401.796 224.444V412.7L392.023 418.465V222.438Z" stroke="#D48E49" stroke-width="0.202633" stroke-miterlimit="10" stroke-linecap="round"/>
<path d="M517.438 77.9244V384.749L523.327 379.234V88.4527L517.438 77.9244Z" stroke="#D48E49" stroke-width="0.405266" stroke-miterlimit="10" stroke-linecap="round"/>
<path d="M517.438 77.9244L508.292 81.3085V383.496L517.438 384.749V77.9244Z" stroke="#D48E49" stroke-width="0.405266" stroke-miterlimit="10" stroke-linecap="round"/>
<path d="M568.431 168.794V336.871L564.797 340.255V162.402L568.431 168.794Z" stroke="#D48E49" stroke-width="0.202633" stroke-miterlimit="10" stroke-linecap="round"/>
<path d="M564.797 162.402L559.285 164.282V340.255H564.797" stroke="#D48E49" stroke-width="0.202633" stroke-miterlimit="10" stroke-linecap="round"/>
<path d="M348.297 138.587V361.562L356.316 362.941V135.83L348.297 138.587Z" stroke="#D48E49" stroke-width="0.202633" stroke-miterlimit="10" stroke-linecap="round"/>
<path d="M356.316 135.83L364.46 140.092V359.181L356.316 362.941V135.83Z" stroke="#D48E49" stroke-width="0.202633" stroke-miterlimit="10" stroke-linecap="round"/>
<path d="M559.285 372.717L482.983 364.946V241.113" stroke="#D48E49" stroke-width="0.405266" stroke-miterlimit="10" stroke-linecap="round"/>
<path d="M473.462 112.142L388.14 140.468" stroke="#D48E49" stroke-width="0.405266" stroke-miterlimit="10" stroke-linecap="round"/>
<path d="M393.527 134.577V222.438" stroke="#D48E49" stroke-width="0.405266" stroke-miterlimit="10" stroke-linecap="round"/>
<path d="M393.527 138.713L410.942 146.233L469.327 128.059" stroke="#D48E49" stroke-width="0.405266" stroke-miterlimit="10" stroke-linecap="round"/>
<path d="M410.942 146.233V225.321" stroke="#D48E49" stroke-width="0.405266" stroke-miterlimit="10" stroke-linecap="round"/>
<path d="M417.207 227.577V150.62L469.327 134.577" stroke="#D48E49" stroke-width="0.405266" stroke-miterlimit="10" stroke-linecap="round"/>
<path d="M417.207 150.62L421.592 153.127L469.327 138.588" stroke="#D48E49" stroke-width="0.405266" stroke-miterlimit="10" stroke-linecap="round"/>
<path d="M421.592 153.127V228.58" stroke="#D48E49" stroke-width="0.405266" stroke-miterlimit="10" stroke-linecap="round"/>
<path d="M449.031 140.844V234.22" stroke="#D48E49" stroke-width="0.405266" stroke-miterlimit="10" stroke-linecap="round"/>
<path d="M453.039 234.971V139.59L456.297 142.598V235.723" stroke="#D48E49" stroke-width="0.405266" stroke-miterlimit="10" stroke-linecap="round" stroke-linejoin="round"/>
<path d="M531.345 141.22V222.438L554.023 233.969V171.05L531.345 141.22Z" stroke="#D48E49" stroke-width="0.405266" stroke-miterlimit="10" stroke-linecap="round"/>
<path d="M554.023 171.05H547.633L531.345 154.129" stroke="#D48E49" stroke-width="0.405266" stroke-miterlimit="10" stroke-linecap="round"/>
<path d="M547.633 171.05V230.459" stroke="#D48E49" stroke-width="0.405266" stroke-miterlimit="10" stroke-linecap="round"/>
<path d="M545.378 229.582V172.554L531.345 157.764" stroke="#D48E49" stroke-width="0.405266" stroke-miterlimit="10" stroke-linecap="round"/>
<path d="M545.378 172.554H543.624L531.345 160.647" stroke="#D48E49" stroke-width="0.405266" stroke-miterlimit="10" stroke-linecap="round"/>
<path d="M543.623 172.554V228.705" stroke="#D48E49" stroke-width="0.405266" stroke-miterlimit="10" stroke-linecap="round"/>
<path d="M370.85 413.076V249.386L299.561 256.781V393.273L317.853 385.878V254.901" stroke="#D48E49" stroke-width="0.405266" stroke-miterlimit="10" stroke-linecap="round"/>
<path d="M341.657 267.935L323.741 269.439V302.654H341.657V267.935Z" stroke="#D48E49" stroke-width="0.405266" stroke-miterlimit="10" stroke-linecap="round"/>
<path d="M345.541 267.935V302.653H367.592V266.306L345.541 267.935Z" stroke="#D48E49" stroke-width="0.405266" stroke-miterlimit="10" stroke-linecap="round"/>
<path d="M323.741 307.041H341.657V339.001L323.741 337.748V307.041Z" stroke="#D48E49" stroke-width="0.405266" stroke-miterlimit="10" stroke-linecap="round"/>
<path d="M345.541 307.041V339.001L367.592 340.255V307.417L345.541 307.041Z" stroke="#D48E49" stroke-width="0.405266" stroke-miterlimit="10" stroke-linecap="round"/>
<path d="M413.072 249.386V280.469L475.341 281.472V257.156L413.072 249.386Z" stroke="#D48E49" stroke-width="0.405266" stroke-miterlimit="10" stroke-linecap="round"/>
<path d="M468.325 281.346V256.279" stroke="#D48E49" stroke-width="0.405266" stroke-miterlimit="10" stroke-linecap="round"/>
<path d="M442.014 253.02V280.97" stroke="#D48E49" stroke-width="0.405266" stroke-miterlimit="10" stroke-linecap="round"/>
<path d="M447.151 253.647V280.97" stroke="#D48E49" stroke-width="0.405266" stroke-miterlimit="10" stroke-linecap="round"/>
<path d="M438.381 253.02V280.845" stroke="#D48E49" stroke-width="0.405266" stroke-miterlimit="10" stroke-linecap="round"/>
<path d="M531.345 264.05V282.474L554.023 282.85V267.309L531.345 264.05Z" stroke="#D48E49" stroke-width="0.405266" stroke-miterlimit="10" stroke-linecap="round"/>
<path d="M550.515 266.807V282.85" stroke="#D48E49" stroke-width="0.405266" stroke-miterlimit="10" stroke-linecap="round"/>
<path d="M542.747 265.679V282.725" stroke="#D48E49" stroke-width="0.405266" stroke-miterlimit="10" stroke-linecap="round"/>
<path d="M539.614 265.429V282.6" stroke="#D48E49" stroke-width="0.405266" stroke-miterlimit="10" stroke-linecap="round"/>
<path d="M537.61 264.927V282.6" stroke="#D48E49" stroke-width="0.405266" stroke-miterlimit="10" stroke-linecap="round"/>
<path d="M71.0322 212.536V350.156L373.982 484.016L517.438 368.456L482.984 364.946L392.024 418.465V222.438L245.811 241.991V378.608" stroke="#D48E49" stroke-width="0.810532" stroke-miterlimit="10" stroke-linecap="round"/>
<path d="M517.438 70.0282V248.383" stroke="#D48E49" stroke-width="0.810532" stroke-miterlimit="10" stroke-linecap="round"/>
<path d="M218.498 160.522V277.21H228.271V382.995L245.811 378.608L299.56 393.272" stroke="#D48E49" stroke-width="0.810532" stroke-miterlimit="10" stroke-linecap="round"/>
<path d="M118.391 348.903L80.9297 354.167V280.344L117.765 279.216L118.391 348.903ZM118.391 348.903L228.27 382.995" stroke="#D48E49" stroke-width="0.810532" stroke-miterlimit="10" stroke-linecap="round"/>
<path d="M373.857 519.862L568.431 336.871V168.794L517.439 77.9246L348.298 138.588V196.744L218.498 160.522L71.0322 216.046" stroke="#D48E49" stroke-width="0.810532" stroke-miterlimit="10" stroke-linecap="round"/>
<path d="M348.298 196.744V228.204" stroke="#D48E49" stroke-width="0.810532" stroke-miterlimit="10" stroke-linecap="round"/>
<path d="M517.438 368.456V248.383" stroke="#D48E49" stroke-width="0.810532" stroke-miterlimit="10" stroke-linecap="round"/>
<path d="M392.023 222.438L482.482 241.113L482.984 364.946" stroke="#D48E49" stroke-width="0.810532" stroke-miterlimit="10" stroke-linecap="round"/>
<path d="M246.939 188.347V222.438L338.024 240.236V211.785L246.939 188.347Z" stroke="#D48E49" stroke-width="0.405266" stroke-miterlimit="10" stroke-linecap="round"/>
<path d="M338.024 211.785L330.757 213.665L331.133 238.857" stroke="#D48E49" stroke-width="0.405266" stroke-miterlimit="10" stroke-linecap="round"/>
<path d="M330.758 213.665L246.939 192.859" stroke="#D48E49" stroke-width="0.405266" stroke-miterlimit="10" stroke-linecap="round"/>
<path d="M328.252 238.356V215.294L246.939 195.24" stroke="#D48E49" stroke-width="0.405266" stroke-miterlimit="10" stroke-linecap="round"/>
<path d="M328.251 215.294H326.247V237.855" stroke="#D48E49" stroke-width="0.405266" stroke-miterlimit="10" stroke-linecap="round"/>
<path d="M309.333 210.657V234.596" stroke="#D48E49" stroke-width="0.405266" stroke-miterlimit="10" stroke-linecap="round"/>
<path d="M306.452 209.905V233.844" stroke="#D48E49" stroke-width="0.405266" stroke-miterlimit="10" stroke-linecap="round"/>
<path d="M304.572 209.905V233.719" stroke="#D48E49" stroke-width="0.405266" stroke-miterlimit="10" stroke-linecap="round"/>
<path d="M278.011 203.262V228.454" stroke="#D48E49" stroke-width="0.405266" stroke-miterlimit="10" stroke-linecap="round"/>
<path d="M274.127 227.702V202.008" stroke="#D48E49" stroke-width="0.405266" stroke-miterlimit="10" stroke-linecap="round"/>
<path d="M271.871 201.382V227.201" stroke="#D48E49" stroke-width="0.405266" stroke-miterlimit="10" stroke-linecap="round"/>
<path d="M218.497 277.21L117.765 279.216" stroke="#D48E49" stroke-width="0.810532" stroke-miterlimit="10" stroke-linecap="round"/>
<path d="M191.812 194.864V249.26" stroke="#D48E49" stroke-width="0.405266" stroke-miterlimit="10" stroke-linecap="round"/>
<path d="M151.468 209.278V254.65" stroke="#D48E49" stroke-width="0.405266" stroke-miterlimit="10" stroke-linecap="round"/>
<path d="M126.911 218.177V258.034" stroke="#D48E49" stroke-width="0.405266" stroke-miterlimit="10" stroke-linecap="round"/>
<path d="M94.3359 229.833V263.423" stroke="#D48E49" stroke-width="0.405266" stroke-miterlimit="10" stroke-linecap="round"/>
<path d="M94.3359 229.833L99.2222 230.46V261.668" stroke="#D48E49" stroke-width="0.405266" stroke-miterlimit="10" stroke-linecap="round"/>
<path d="M99.2217 230.46L126.911 221.561" stroke="#D48E49" stroke-width="0.405266" stroke-miterlimit="10" stroke-linecap="round"/>
<path d="M151.468 209.278L157.983 210.155V253.647" stroke="#D48E49" stroke-width="0.405266" stroke-miterlimit="10" stroke-linecap="round"/>
<path d="M157.982 210.155L191.811 198.499" stroke="#D48E49" stroke-width="0.405266" stroke-miterlimit="10" stroke-linecap="round"/>
<path d="M159.987 253.522V211.408L191.811 200.755" stroke="#D48E49" stroke-width="0.405266" stroke-miterlimit="10" stroke-linecap="round"/>
<path d="M178.029 205.267V251.14" stroke="#D48E49" stroke-width="0.405266" stroke-miterlimit="10" stroke-linecap="round"/>
<path d="M180.66 250.764V204.39L182.539 205.267V250.513" stroke="#D48E49" stroke-width="0.405266" stroke-miterlimit="10" stroke-linecap="round"/>
<path d="M159.987 211.408L161.491 212.035V253.396" stroke="#D48E49" stroke-width="0.405266" stroke-miterlimit="10" stroke-linecap="round"/>
<path d="M161.491 212.035L178.029 206.646" stroke="#D48E49" stroke-width="0.405266" stroke-miterlimit="10" stroke-linecap="round"/>
<path d="M182.54 205.267L191.811 202.134" stroke="#D48E49" stroke-width="0.405266" stroke-miterlimit="10" stroke-linecap="round"/>
<path d="M100.976 261.543V231.462L126.911 223.691" stroke="#D48E49" stroke-width="0.405266" stroke-miterlimit="10" stroke-linecap="round"/>
<path d="M113.881 227.577V259.788" stroke="#D48E49" stroke-width="0.405266" stroke-miterlimit="10" stroke-linecap="round"/>
<path d="M115.635 259.538V227.075L116.888 227.577V259.287" stroke="#D48E49" stroke-width="0.405266" stroke-miterlimit="10" stroke-linecap="round"/>
<path d="M100.976 231.462L102.104 231.964V261.292" stroke="#D48E49" stroke-width="0.405266" stroke-miterlimit="10" stroke-linecap="round"/>
<path d="M102.104 231.964L113.881 228.454" stroke="#D48E49" stroke-width="0.405266" stroke-miterlimit="10" stroke-linecap="round"/>
<path d="M116.888 227.577L126.911 224.694" stroke="#D48E49" stroke-width="0.405266" stroke-miterlimit="10" stroke-linecap="round"/>
<path d="M75.6675 172.554V415.708" stroke="#D48E49" stroke-width="0.12158" stroke-miterlimit="10" stroke-linecap="round"/>
<path d="M218.123 127.057V489.782" stroke="#D48E49" stroke-width="0.12158" stroke-miterlimit="10" stroke-linecap="round"/>
<path d="M228.271 131.068V500.31" stroke="#D48E49" stroke-width="0.12158" stroke-miterlimit="10" stroke-linecap="round"/>
<path d="M347.921 123.422V535.154" stroke="#D48E49" stroke-width="0.12158" stroke-miterlimit="10" stroke-linecap="round"/>
<path d="M517.438 50.8518V422.727" stroke="#D48E49" stroke-width="0.12158" stroke-miterlimit="10" stroke-linecap="round"/>
<path d="M285.653 98.2292V407.435" stroke="#D48E49" stroke-width="0.12158" stroke-miterlimit="10" stroke-linecap="round"/>
<path d="M568.431 133.95V373.72" stroke="#D48E49" stroke-width="0.12158" stroke-miterlimit="10" stroke-linecap="round"/>
<path d="M392.274 193.485V433.38" stroke="#D48E49" stroke-width="0.12158" stroke-miterlimit="10" stroke-linecap="round"/>
<path d="M65.2686 200.755L537.61 13" stroke="#D48E49" stroke-width="0.12158" stroke-miterlimit="10" stroke-linecap="round"/>
<path d="M577.452 162.402L491.504 13" stroke="#D48E49" stroke-width="0.12158" stroke-miterlimit="10" stroke-linecap="round"/>
<path d="M469.327 109.76V238.105" stroke="#D48E49" stroke-width="0.405266" stroke-miterlimit="10" stroke-linecap="round"/>
<path d="M127.788 286.36H218.122V343.764L127.788 331.105V286.36Z" stroke="#D48E49" stroke-width="0.405266" stroke-miterlimit="10" stroke-linecap="round"/>
<path d="M133.551 286.36V330.228L127.788 331.105" stroke="#D48E49" stroke-width="0.405266" stroke-miterlimit="10" stroke-linecap="round"/>
<path d="M136.308 286.36V328.473L218.122 338.124" stroke="#D48E49" stroke-width="0.405266" stroke-miterlimit="10" stroke-linecap="round"/>
<path d="M173.018 286.36V332.735" stroke="#D48E49" stroke-width="0.405266" stroke-miterlimit="10" stroke-linecap="round"/>
<path d="M179.783 333.236V286.36" stroke="#D48E49" stroke-width="0.405266" stroke-miterlimit="10" stroke-linecap="round"/>
<path d="M177.277 286.36V333.236" stroke="#D48E49" stroke-width="0.405266" stroke-miterlimit="10" stroke-linecap="round"/>
<path d="M136.308 328.473H138.312V286.36" stroke="#D48E49" stroke-width="0.405266" stroke-miterlimit="10" stroke-linecap="round"/>
</g>
</g>
<defs>
<clipPath id="clip0_431_945">
<rect width="598" height="311.348" fill="white" transform="translate(0 0.651978)"/>
</clipPath>
</defs>
</svg>
