<svg width="45" height="45" viewBox="0 0 45 45" fill="none" xmlns="http://www.w3.org/2000/svg">
<path d="M37.2223 40.6667H7.889C7.40277 40.6667 6.93645 40.4735 6.59263 40.1297C6.24882 39.7859 6.05566 39.3196 6.05566 38.8333V5.83333C6.05566 5.3471 6.24882 4.88079 6.59263 4.53697C6.93645 4.19315 7.40277 4 7.889 4H37.2223C37.7086 4 38.1749 4.19315 38.5187 4.53697C38.8625 4.88079 39.0557 5.3471 39.0557 5.83333V38.8333C39.0557 39.3196 38.8625 39.7859 38.5187 40.1297C38.1749 40.4735 37.7086 40.6667 37.2223 40.6667ZM35.389 37V7.66667H9.72233V37H35.389ZM15.2223 13.1667H29.889V16.8333H15.2223V13.1667ZM15.2223 20.5H29.889V24.1667H15.2223V20.5ZM15.2223 27.8333H24.389V31.5H15.2223V27.8333Z" fill="#D48E49"/>
</svg>
