<svg width="44" height="45" viewBox="0 0 44 45" fill="none" xmlns="http://www.w3.org/2000/svg">
<g clip-path="url(#clip0_142_2397)">
<path d="M38.5 15V38.8205C38.5017 39.0613 38.4559 39.3 38.3654 39.5231C38.2748 39.7461 38.1412 39.9492 37.9721 40.1206C37.8031 40.2921 37.6019 40.4285 37.3801 40.5222C37.1583 40.6159 36.9203 40.665 36.6795 40.6667H7.3205C6.83799 40.6667 6.37522 40.4751 6.03386 40.1341C5.6925 39.7931 5.50049 39.3305 5.5 38.848V5.81867C5.5 4.83417 6.32317 4 7.337 4H27.4945L38.5 15ZM34.8333 16.8333H25.6667V7.66667H9.16667V37H34.8333V16.8333ZM14.6667 13.1667H20.1667V16.8333H14.6667V13.1667ZM14.6667 20.5H29.3333V24.1667H14.6667V20.5ZM14.6667 27.8333H29.3333V31.5H14.6667V27.8333Z" fill="#D48E49"/>
</g>
<defs>
<clipPath id="clip0_142_2397">
<rect width="44" height="44" fill="white" transform="translate(0 0.333252)"/>
</clipPath>
</defs>
</svg>

