<svg width="75" height="75" viewBox="0 0 75 75" fill="none" xmlns="http://www.w3.org/2000/svg">
<path d="M6.25 59.375H68.75V65.625H6.25V59.375ZM34.375 25H40.625V50H34.375V25ZM24.8906 25H31.5312L22.2 49.8875H15.95L6.61875 25H13.2594L19.075 40.9781L24.8906 25ZM53.125 43.75V50H46.875V25H59.375C61.8614 25 64.246 25.9877 66.0041 27.7459C67.7623 29.504 68.75 31.8886 68.75 34.375C68.75 36.8614 67.7623 39.246 66.0041 41.0041C64.246 42.7623 61.8614 43.75 59.375 43.75H53.125ZM53.125 31.25V37.5H59.375C60.2038 37.5 60.9987 37.1708 61.5847 36.5847C62.1708 35.9987 62.5 35.2038 62.5 34.375C62.5 33.5462 62.1708 32.7513 61.5847 32.1653C60.9987 31.5792 60.2038 31.25 59.375 31.25H53.125ZM6.25 9.375H68.75V15.625H6.25V9.375Z" fill="#D48E49"/>
</svg>
