<svg width="75" height="75" viewBox="0 0 75 75" fill="none" xmlns="http://www.w3.org/2000/svg">
<path d="M15.625 28.125C16.4538 28.125 17.2487 28.4542 17.8347 29.0403C18.4208 29.6263 18.75 30.4212 18.75 31.25C23.6598 31.2428 28.4281 32.8946 32.2812 35.9375H39.0625C43.2281 35.9375 46.9688 37.75 49.5438 40.625H59.375C62.3289 40.6242 65.2226 41.4607 67.7204 43.0376C70.2182 44.6145 72.2179 46.8672 73.4875 49.5344C66.0969 59.2875 54.1312 65.625 40.625 65.625C31.9062 65.625 24.5312 63.7406 18.5625 60.4437C18.3439 61.0471 17.9445 61.5682 17.4188 61.9362C16.8931 62.3042 16.2667 62.5011 15.625 62.5H6.25C5.4212 62.5 4.62634 62.1708 4.04029 61.5847C3.45424 60.9987 3.125 60.2038 3.125 59.375V31.25C3.125 30.4212 3.45424 29.6263 4.04029 29.0403C4.62634 28.4542 5.4212 28.125 6.25 28.125H15.625ZM18.7531 37.5L18.75 53.1937L18.8906 53.2938C24.5 57.2313 31.8062 59.375 40.625 59.375C50.0125 59.375 58.7469 55.7625 65.1094 49.5938L65.525 49.1781L65.15 48.8656C63.6744 47.7099 61.8856 47.024 60.0156 46.8969L59.375 46.875H52.7781C53.0031 47.8812 53.125 48.925 53.125 50V53.125H25V46.875L46.2188 46.8719L46.1125 46.6281C45.5136 45.3767 44.5924 44.3072 43.4435 43.5296C42.2946 42.7519 40.9594 42.2941 39.575 42.2031L39.0625 42.1875H29.9062C28.4541 40.7023 26.7196 39.5224 24.8048 38.7174C22.8899 37.9124 20.8334 37.4985 18.7562 37.5H18.7531ZM12.5 34.375H9.375V56.25H12.5V34.375ZM56.25 15.625C58.7364 15.625 61.121 16.6127 62.8791 18.3709C64.6373 20.129 65.625 22.5136 65.625 25C65.625 27.4864 64.6373 29.871 62.8791 31.6291C61.121 33.3873 58.7364 34.375 56.25 34.375C53.7636 34.375 51.379 33.3873 49.6209 31.6291C47.8627 29.871 46.875 27.4864 46.875 25C46.875 22.5136 47.8627 20.129 49.6209 18.3709C51.379 16.6127 53.7636 15.625 56.25 15.625ZM56.25 21.875C55.4212 21.875 54.6263 22.2042 54.0403 22.7903C53.4542 23.3763 53.125 24.1712 53.125 25C53.125 25.8288 53.4542 26.6237 54.0403 27.2097C54.6263 27.7958 55.4212 28.125 56.25 28.125C57.0788 28.125 57.8737 27.7958 58.4597 27.2097C59.0458 26.6237 59.375 25.8288 59.375 25C59.375 24.1712 59.0458 23.3763 58.4597 22.7903C57.8737 22.2042 57.0788 21.875 56.25 21.875ZM34.375 6.25C36.8614 6.25 39.246 7.23772 41.0041 8.99587C42.7623 10.754 43.75 13.1386 43.75 15.625C43.75 18.1114 42.7623 20.496 41.0041 22.2541C39.246 24.0123 36.8614 25 34.375 25C31.8886 25 29.504 24.0123 27.7459 22.2541C25.9877 20.496 25 18.1114 25 15.625C25 13.1386 25.9877 10.754 27.7459 8.99587C29.504 7.23772 31.8886 6.25 34.375 6.25ZM34.375 12.5C33.5462 12.5 32.7513 12.8292 32.1653 13.4153C31.5792 14.0013 31.25 14.7962 31.25 15.625C31.25 16.4538 31.5792 17.2487 32.1653 17.8347C32.7513 18.4208 33.5462 18.75 34.375 18.75C35.2038 18.75 35.9987 18.4208 36.5847 17.8347C37.1708 17.2487 37.5 16.4538 37.5 15.625C37.5 14.7962 37.1708 14.0013 36.5847 13.4153C35.9987 12.8292 35.2038 12.5 34.375 12.5Z" fill="#D48E49"/>
</svg>
