<svg width="46" height="46" viewBox="0 0 46 46" fill="none" xmlns="http://www.w3.org/2000/svg">
<g clip-path="url(#clip0_142_2380)">
<path d="M34.7162 32.0428L42.8129 40.1377L40.1379 42.8126L32.0431 34.7159C29.0311 37.1304 25.2848 38.4437 21.4245 38.4382C12.0329 38.4382 4.41064 30.816 4.41064 21.4243C4.41064 12.0326 12.0329 4.4104 21.4245 4.4104C30.8162 4.4104 38.4384 12.0326 38.4384 21.4243C38.4439 25.2846 37.1307 29.0309 34.7162 32.0428ZM30.924 30.6401C33.3231 28.1729 34.663 24.8657 34.6576 21.4243C34.6576 14.1121 28.7348 8.19126 21.4245 8.19126C14.1123 8.19126 8.19151 14.1121 8.19151 21.4243C8.19151 28.7346 14.1123 34.6573 21.4245 34.6573C24.8659 34.6627 28.1732 33.3229 30.6404 30.9237L30.924 30.6401Z" fill="#D48E49"/>
</g>
<defs>
<clipPath id="clip0_142_2380">
<rect width="45.3704" height="45.3704" fill="white" transform="translate(0.629883 0.629639)"/>
</clipPath>
</defs>
</svg>
