<svg width="75" height="75" viewBox="0 0 75 75" fill="none" xmlns="http://www.w3.org/2000/svg">
<path d="M65.625 65.625H9.375C8.5462 65.625 7.75134 65.2958 7.16529 64.7097C6.57924 64.1237 6.25 63.3288 6.25 62.5V39.0219C6.24995 38.5753 6.3456 38.134 6.53049 37.7275C6.71539 37.3211 6.98524 36.959 7.32187 36.6656L18.75 26.7V12.5C18.75 11.6712 19.0792 10.8763 19.6653 10.2903C20.2513 9.70424 21.0462 9.375 21.875 9.375H65.625C66.4538 9.375 67.2487 9.70424 67.8347 10.2903C68.4208 10.8763 68.75 11.6712 68.75 12.5V62.5C68.75 63.3288 68.4208 64.1237 67.8347 64.7097C67.2487 65.2958 66.4538 65.625 65.625 65.625ZM28.125 59.375H37.5V40.4438L25 29.5438L12.5 40.4438V59.375H21.875V46.875H28.125V59.375ZM43.75 59.375H62.5V15.625H25V22.2719C25.7312 22.2719 26.4656 22.5281 27.0531 23.0437L42.6781 36.6656C43.0148 36.959 43.2846 37.3211 43.4695 37.7275C43.6544 38.134 43.75 38.5753 43.75 39.0219V59.375ZM50 34.375H56.25V40.625H50V34.375ZM50 46.875H56.25V53.125H50V46.875ZM50 21.875H56.25V28.125H50V21.875ZM37.5 21.875H43.75V28.125H37.5V21.875Z" fill="#D48E49"/>
</svg>
