<svg width="56" height="56" viewBox="0 0 56 56" fill="none" xmlns="http://www.w3.org/2000/svg">
<path d="M46.6668 14H53.6668V18.6667H51.3335V44.3333H53.6668V49H2.3335V44.3333H4.66683V18.6667H2.3335V14H9.3335V9.33333C9.3335 8.71449 9.57933 8.121 10.0169 7.68342C10.4545 7.24583 11.048 7 11.6668 7H44.3335C44.9523 7 45.5458 7.24583 45.9834 7.68342C46.421 8.121 46.6668 8.71449 46.6668 9.33333V14ZM46.6668 18.6667H9.3335V44.3333H16.3335V28H21.0002V44.3333H25.6668V28H30.3335V44.3333H35.0002V28H39.6668V44.3333H46.6668V18.6667ZM14.0002 11.6667V14H42.0002V11.6667H14.0002Z" fill="#D48E49"/>
</svg>
