<svg width="75" height="75" viewBox="0 0 75 75" fill="none" xmlns="http://www.w3.org/2000/svg">
<path d="M12.5 9.375H62.5C63.3288 9.375 64.1237 9.70424 64.7097 10.2903C65.2958 10.8763 65.625 11.6712 65.625 12.5V62.5C65.625 63.3288 65.2958 64.1237 64.7097 64.7097C64.1237 65.2958 63.3288 65.625 62.5 65.625H12.5C11.6712 65.625 10.8763 65.2958 10.2903 64.7097C9.70424 64.1237 9.375 63.3288 9.375 62.5V12.5C9.375 11.6712 9.70424 10.8763 10.2903 10.2903C10.8763 9.70424 11.6712 9.375 12.5 9.375ZM15.625 15.625V59.375H59.375V15.625H15.625ZM34.3844 50L21.125 36.7406L25.5437 32.3219L34.3844 41.1625L52.0594 23.4844L56.4812 27.9031L34.3844 50Z" fill="#D48E49"/>
</svg>
