<svg width="56" height="56" viewBox="0 0 56 56" fill="none" xmlns="http://www.w3.org/2000/svg">
<path d="M51.3332 49H4.6665V44.3333H6.99984V9.33333C6.99984 8.71449 7.24567 8.121 7.68325 7.68342C8.12084 7.24583 8.71433 7 9.33317 7H41.9998C42.6187 7 43.2122 7.24583 43.6498 7.68342C44.0873 8.121 44.3332 8.71449 44.3332 9.33333V21H48.9998V44.3333H51.3332V49ZM39.6665 44.3333H44.3332V25.6667H30.3332V44.3333H34.9998V30.3333H39.6665V44.3333ZM39.6665 21V11.6667H11.6665V44.3333H25.6665V21H39.6665ZM16.3332 25.6667H20.9998V30.3333H16.3332V25.6667ZM16.3332 35H20.9998V39.6667H16.3332V35ZM16.3332 16.3333H20.9998V21H16.3332V16.3333Z" fill="#D48E49"/>
</svg>
