<svg width="56" height="56" viewBox="0 0 56 56" fill="none" xmlns="http://www.w3.org/2000/svg">
<path d="M39.6667 37.3332H44.3333V9.33317H21V13.9998H39.6667V37.3332ZM39.6667 41.9998V48.9998C39.6667 50.2878 38.6167 51.3332 37.317 51.3332H9.34967C9.04196 51.335 8.73693 51.276 8.45209 51.1596C8.16724 51.0432 7.90821 50.8717 7.68987 50.6549C7.47153 50.438 7.29818 50.1802 7.17979 49.8962C7.0614 49.6122 7.0003 49.3075 7 48.9998L7.007 16.3332C7.007 15.0452 8.057 13.9998 9.35667 13.9998H16.3333V6.99984C16.3333 6.381 16.5792 5.78751 17.0168 5.34992C17.4543 4.91234 18.0478 4.6665 18.6667 4.6665H46.6667C47.2855 4.6665 47.879 4.91234 48.3166 5.34992C48.7542 5.78751 49 6.381 49 6.99984V39.6665C49 40.2853 48.7542 40.8788 48.3166 41.3164C47.879 41.754 47.2855 41.9998 46.6667 41.9998H39.6667ZM11.6737 18.6665L11.6667 46.6665H35V18.6665H11.6737ZM16.3333 37.3332H26.8333C27.1428 37.3332 27.4395 37.2103 27.6583 36.9915C27.8771 36.7727 28 36.4759 28 36.1665C28 35.8571 27.8771 35.5603 27.6583 35.3415C27.4395 35.1228 27.1428 34.9998 26.8333 34.9998H19.8333C18.2862 34.9998 16.8025 34.3853 15.7085 33.2913C14.6146 32.1973 14 30.7136 14 29.1665C14 27.6194 14.6146 26.1357 15.7085 25.0417C16.8025 23.9478 18.2862 23.3332 19.8333 23.3332H21V20.9998H25.6667V23.3332H30.3333V27.9998H19.8333C19.5239 27.9998 19.2272 28.1228 19.0084 28.3415C18.7896 28.5603 18.6667 28.8571 18.6667 29.1665C18.6667 29.4759 18.7896 29.7727 19.0084 29.9915C19.2272 30.2103 19.5239 30.3332 19.8333 30.3332H26.8333C28.3804 30.3332 29.8642 30.9478 30.9581 32.0417C32.0521 33.1357 32.6667 34.6194 32.6667 36.1665C32.6667 37.7136 32.0521 39.1973 30.9581 40.2913C29.8642 41.3853 28.3804 41.9998 26.8333 41.9998H25.6667V44.3332H21V41.9998H16.3333V37.3332Z" fill="#D48E49"/>
</svg>
