<svg width="45" height="45" viewBox="0 0 45 45" fill="none" xmlns="http://www.w3.org/2000/svg">
<g clip-path="url(#clip0_142_2407)">
<path d="M6.52815 8.94273C8.66981 6.80069 11.5423 5.54782 14.5693 5.43551C17.5962 5.32319 20.5536 6.35975 22.8482 8.3372C25.1406 6.36305 28.0942 5.32765 31.1175 5.4383C34.1408 5.54894 37.0107 6.79745 39.1528 8.93388C41.2948 11.0703 42.5508 13.937 42.6694 16.96C42.7879 19.983 41.7603 22.9393 39.7922 25.2369L25.4568 39.6184C24.7981 40.2773 23.9148 40.6628 22.9839 40.6977C22.0529 40.7327 21.1432 40.4144 20.4371 39.8067L20.234 39.6203L5.90046 25.2369C3.93336 22.9412 2.90522 19.9877 3.0216 16.9668C3.13797 13.9459 4.39028 11.0802 6.52815 8.94273ZM9.13862 11.5532C7.62891 13.0633 6.75865 15.0968 6.70846 17.2315C6.65827 19.3663 7.43201 21.4384 8.86908 23.0178L9.13862 23.3021L22.8463 37.0098L32.6365 27.2178L26.1103 20.6917L24.1534 22.6486C23.6392 23.163 23.0287 23.5712 22.3567 23.8497C21.6848 24.1282 20.9645 24.2716 20.2372 24.2718C18.7681 24.2722 17.3591 23.6889 16.3202 22.6504C15.2812 21.6119 14.6973 20.2032 14.6969 18.7342C14.6966 17.2652 15.2798 15.8562 16.3183 14.8172L20.1989 10.9347C18.6546 9.7022 16.7215 9.06032 14.7467 9.12426C12.7718 9.18821 10.8843 9.95379 9.42292 11.2837L9.13862 11.5532ZM24.8051 16.7741C25.1513 16.428 25.6208 16.2336 26.1103 16.2336C26.5998 16.2336 27.0693 16.428 27.4155 16.7741L35.2469 24.6055L36.554 23.3021C38.089 21.7682 38.9629 19.6946 38.9888 17.5247C39.0147 15.3548 38.1905 13.2609 36.6925 11.6908C35.1945 10.1208 33.1417 9.19911 30.973 9.12302C28.8043 9.04693 26.6919 9.82242 25.0875 11.2837L24.8051 11.5532L18.9306 17.4277C18.6106 17.7474 18.4192 18.1736 18.3926 18.6252C18.3661 19.0768 18.5063 19.5224 18.7866 19.8775L18.9306 20.0381C19.2504 20.3581 19.6765 20.5496 20.1281 20.5761C20.5798 20.6026 21.0254 20.4624 21.3805 20.1821L21.5411 20.0381L24.8051 16.7741Z" fill="#D48E49"/>
</g>
<defs>
<clipPath id="clip0_142_2407">
<rect width="44.3077" height="44.3077" fill="white" transform="translate(0.692383 0.692383)"/>
</clipPath>
</defs>
</svg>
