<svg width="75" height="75" viewBox="0 0 75 75" fill="none" xmlns="http://www.w3.org/2000/svg">
<path d="M62.5 68.75H12.5C11.6712 68.75 10.8763 68.4208 10.2903 67.8347C9.70424 67.2487 9.375 66.4538 9.375 65.625V9.375C9.375 8.5462 9.70424 7.75134 10.2903 7.16529C10.8763 6.57924 11.6712 6.25 12.5 6.25H62.5C63.3288 6.25 64.1237 6.57924 64.7097 7.16529C65.2958 7.75134 65.625 8.5462 65.625 9.375V65.625C65.625 66.4538 65.2958 67.2487 64.7097 67.8347C64.1237 68.4208 63.3288 68.75 62.5 68.75ZM59.375 62.5V12.5H15.625V62.5H59.375ZM25 21.875H50V28.125H25V21.875ZM25 34.375H50V40.625H25V34.375ZM25 46.875H40.625V53.125H25V46.875Z" fill="#D48E49"/>
</svg>
