<svg width="32" height="32" viewBox="0 0 32 32" fill="none" xmlns="http://www.w3.org/2000/svg">
<circle cx="16.0003" cy="15.9998" r="13.3333" fill="#0077B5"/>
<path fill-rule="evenodd" clip-rule="evenodd" d="M12.5162 9.52259C12.5162 10.3527 11.8842 11.0244 10.8958 11.0244C9.94591 11.0244 9.31389 10.3527 9.33345 9.52259C9.31389 8.65219 9.9459 8 10.9147 8C11.8841 8 12.4972 8.65219 12.5162 9.52259ZM9.41291 21.8794V12.2108H12.4178V21.8787H9.41291V21.8794Z" fill="white"/>
<path fill-rule="evenodd" clip-rule="evenodd" d="M14.8265 15.2964C14.8265 14.0904 14.7868 13.0623 14.7471 12.2121H17.3571L17.4958 13.5367H17.5551C17.9506 12.9236 18.9389 11.9951 20.5404 11.9951C22.5171 11.9951 24 13.3001 24 16.146V21.8807H20.9951V16.5226C20.9951 15.2762 20.5606 14.4266 19.4732 14.4266C18.6425 14.4266 18.1486 15 17.9512 15.5531C17.8717 15.7512 17.8326 16.0274 17.8326 16.3049V21.8807H14.8277V15.2964H14.8265Z" fill="white"/>
</svg>
