<svg width="19" height="19" viewBox="0 0 19 19" fill="none" xmlns="http://www.w3.org/2000/svg">
<path d="M4.48719 5.89772C5.39349 5.89772 6.12819 5.16302 6.12819 4.25672C6.12819 3.35042 5.39349 2.61572 4.48719 2.61572C3.58089 2.61572 2.84619 3.35042 2.84619 4.25672C2.84619 5.16302 3.58089 5.89772 4.48719 5.89772Z" fill="white"/>
<path d="M7.67779 7.1415V16.2458H10.5045V11.7435C10.5045 10.5555 10.728 9.405 12.201 9.405C13.6538 9.405 13.6718 10.7633 13.6718 11.8185V16.2465H16.5V11.2538C16.5 8.80125 15.972 6.9165 13.1055 6.9165C11.7293 6.9165 10.8068 7.67175 10.4295 8.3865H10.3913V7.1415H7.67779ZM3.07129 7.1415H5.90254V16.2458H3.07129V7.1415Z" fill="white"/>
</svg>
