<svg width="608" height="589" viewBox="0 0 608 589" fill="none" xmlns="http://www.w3.org/2000/svg">
<path opacity="0.0628953" d="M66 620C29.5492 620 0 591.122 0 555.5C0 519.878 29.5492 491 66 491C102.451 491 132 519.878 132 555.5C132 591.122 102.451 620 66 620Z" fill="#D48E49"/>
<path opacity="0.0628953" d="M559.5 157C532.714 157 511 135.734 511 109.5C511 83.2665 532.714 62 559.5 62C586.286 62 608 83.2665 608 109.5C608 135.734 586.286 157 559.5 157Z" fill="#D48E49"/>
<path opacity="0.0628953" d="M294.5 50C280.417 50 269 38.8071 269 25C269 11.1929 280.417 0 294.5 0C308.583 0 320 11.1929 320 25C320 38.8071 308.583 50 294.5 50Z" fill="#D48E49"/>
</svg>
