<svg width="109" height="34" viewBox="0 0 109 34" fill="none" xmlns="http://www.w3.org/2000/svg">
<path d="M0.925293 0.128418V33.8922H14.4308V27.1395H27.9364V0.128418H0.925293Z" fill="#191C38"/>
<path d="M34.689 7.07568H39.3163C40.4879 7.07568 41.4069 7.38237 42.0731 7.99575C42.7394 8.60913 43.0725 9.44478 43.0725 10.5027C43.0725 11.5595 42.7394 12.3952 42.0731 13.0097C41.4069 13.6242 40.4879 13.9314 39.3163 13.9314H37.1031V17.2437H34.689V7.07568ZM37.1031 11.8887H39.1593C39.5604 11.9138 39.9562 11.7859 40.2668 11.5308C40.5219 11.2492 40.6633 10.8827 40.6633 10.5027C40.6633 10.1227 40.5219 9.75623 40.2668 9.4746C39.9573 9.22233 39.5646 9.09523 39.1661 9.1184H37.1031V11.8887Z" fill="#191C38"/>
<path d="M52.1856 14.7164L52.2565 16.1446C52.247 16.5305 52.3458 16.9112 52.5418 17.2437H50.0568C49.8906 16.8961 49.8074 16.5147 49.8137 16.1295L49.7715 14.9882C49.7535 14.4255 49.6275 14.0372 49.3934 13.8234C49.1604 13.609 48.7856 13.5026 48.2724 13.5026H46.3006V17.2437H43.8882V7.07568H48.7012C49.8919 7.07568 50.8036 7.3396 51.4361 7.86745C52.0686 8.39529 52.3848 9.1122 52.3848 10.0182C52.3848 11.1887 51.8373 11.9928 50.7422 12.4306C51.2656 12.6028 51.6302 12.8651 51.8362 13.2173C52.0421 13.5696 52.1586 14.0693 52.1856 14.7164ZM46.3006 9.0036V11.6878H48.4294C48.8224 11.7125 49.2102 11.5877 49.5149 11.3384C49.6487 11.2076 49.7524 11.0492 49.8189 10.8743C49.8854 10.6994 49.913 10.5121 49.8998 10.3255C49.8998 9.43971 49.3934 8.99685 48.3805 8.99685L46.3006 9.0036Z" fill="#191C38"/>
<path d="M58.0554 17.473C56.5023 17.473 55.2451 16.9874 54.284 16.0161C53.3229 15.0448 52.8423 13.7596 52.8423 12.1603C52.8423 10.57 53.3229 9.28417 54.284 8.30277C55.2451 7.32137 56.5023 6.83573 58.0554 6.84586C59.6063 6.84586 60.8629 7.3315 61.8252 8.30277C62.7874 9.27404 63.2686 10.5599 63.2686 12.1603C63.2686 13.7506 62.7874 15.0358 61.8252 16.0161C60.8629 16.9964 59.6063 17.482 58.0554 17.473ZM56.0988 14.5153C56.3382 14.7977 56.6389 15.0218 56.9779 15.1704C57.317 15.319 57.6855 15.3883 58.0554 15.3729C58.4272 15.3855 58.7971 15.3151 59.1382 15.1667C59.4793 15.0184 59.783 14.7958 60.0272 14.5153C60.5213 13.9526 60.7689 13.1648 60.77 12.1518C60.7712 11.1389 60.5236 10.3511 60.0272 9.78837C59.7832 9.50806 59.4797 9.28565 59.1389 9.13731C58.7981 8.98896 58.4286 8.91841 58.0571 8.93078C57.6872 8.91542 57.3187 8.98469 56.9796 9.1333C56.6406 9.28192 56.3399 9.50597 56.1005 9.78837C55.6042 10.3511 55.3566 11.1389 55.3577 12.1518C55.3588 13.1648 55.6059 13.9526 56.0988 14.5153Z" fill="#191C38"/>
<path d="M64.0957 7.07568H68.7247C69.8941 7.07568 70.8125 7.38237 71.4799 7.99575C72.1473 8.60913 72.481 9.44478 72.481 10.5027C72.481 11.5595 72.1473 12.3952 71.4799 13.0097C70.8125 13.6242 69.8941 13.9314 68.7247 13.9314H66.5098V17.2437H64.0957V7.07568ZM66.5098 11.8887H68.566C68.9672 11.9138 69.3629 11.7859 69.6735 11.5308C69.8092 11.3978 69.9145 11.2372 69.9824 11.0597C70.0503 10.8823 70.0791 10.6923 70.0668 10.5027C70.0792 10.3125 70.0497 10.122 69.9806 9.94436C69.9115 9.76676 69.8044 9.60643 69.6667 9.4746C69.3574 9.22218 68.9646 9.09506 68.566 9.1184H66.5098V11.8887Z" fill="#191C38"/>
<path d="M81.064 7.07568V9.23151H75.709V11.075H80.5778V13.1008H75.709V15.0861H81.0505V17.242H73.2949V7.07568H81.064Z" fill="#191C38"/>
<path d="M90.2037 14.7164L90.2763 16.1446C90.2659 16.5306 90.3648 16.9115 90.5616 17.2437H88.0766C87.9103 16.8961 87.8271 16.5147 87.8335 16.1295L87.7913 14.9882C87.771 14.4261 87.6461 14.0378 87.4114 13.8234C87.1768 13.609 86.8054 13.5026 86.2905 13.5026H84.3204V17.2437H81.9062V7.07568H86.7193C87.91 7.07568 88.8217 7.3396 89.4542 7.86745C90.0867 8.39529 90.4035 9.1122 90.4046 10.0182C90.4046 11.1887 89.8571 11.9928 88.762 12.4306C89.2853 12.6028 89.6494 12.8651 89.8543 13.2173C90.0591 13.5696 90.1756 14.0693 90.2037 14.7164ZM84.3204 9.0036V11.6878H86.4475C86.8405 11.7129 87.2284 11.588 87.533 11.3384C87.6673 11.2078 87.7714 11.0496 87.8382 10.8746C87.905 10.6997 87.9328 10.5123 87.9196 10.3255C87.9196 9.43971 87.4131 8.99685 86.4002 8.99685L84.3204 9.0036Z" fill="#191C38"/>
<path d="M90.5195 7.07568H99.1935V9.23151H96.0652V17.2437H93.6376V9.23151H90.5246L90.5195 7.07568Z" fill="#191C38"/>
<path d="M105.487 8.53259L106.343 7.07568H109L105.228 13.2967V17.2521H102.816V13.2967L99.0024 7.08413H101.725L102.61 8.55454L103.353 9.84094C103.429 9.98275 103.522 10.1499 103.631 10.3474C103.741 10.5449 103.829 10.685 103.897 10.8032C103.964 10.9214 104.02 11.0125 104.065 11.0902C104.603 10.0998 105.077 9.24726 105.487 8.53259Z" fill="#191C38"/>
<path d="M34.689 19.6221H38.1987C39.0867 19.6221 39.7834 19.855 40.2887 20.321C40.794 20.7869 41.0467 21.4206 41.0467 22.2219C41.0467 23.0221 40.7935 23.6569 40.2887 24.1211C39.7839 24.5854 39.0867 24.82 38.1987 24.82H36.5105V27.3337H34.689V19.6221ZM36.519 23.272H38.0805C38.3863 23.2924 38.6883 23.1952 38.9246 23.0001C39.1185 22.787 39.2259 22.5092 39.2259 22.221C39.2259 21.9329 39.1185 21.6551 38.9246 21.4419C38.6906 21.25 38.3929 21.153 38.0907 21.1701H36.5308L36.519 23.272Z" fill="#191C38"/>
<path d="M48.1725 27.3337H46.2345L45.7803 25.9832H42.5728L42.1288 27.3337H40.2549L43.0927 19.6221H45.2688L48.1725 27.3337ZM43.5266 23.142L43.0826 24.4638H45.2604L44.8164 23.142C44.6779 22.7514 44.4613 22.1015 44.1664 21.1921C43.7838 22.3693 43.5705 23.0193 43.5266 23.142Z" fill="#191C38"/>
<path d="M54.9745 25.4159L55.0285 26.4998C55.0215 26.7927 55.097 27.0816 55.2463 27.3337H53.3606C53.2355 27.0701 53.1726 26.7814 53.1766 26.4896L53.1445 25.6236C53.131 25.1982 53.0348 24.9027 52.8575 24.7407C52.6803 24.5786 52.3966 24.4976 52.0134 24.4976H50.5177V27.3354H48.6826V19.6221H52.3325C53.2329 19.6221 53.9245 19.8224 54.4073 20.2231C54.6442 20.4212 54.8323 20.6711 54.9571 20.9537C55.0818 21.2362 55.1397 21.5436 55.1264 21.8522C55.1264 22.7402 54.7112 23.3507 53.8806 23.6839C54.2214 23.7715 54.517 23.9835 54.7095 24.2781C54.8865 24.6311 54.9773 25.021 54.9745 25.4159ZM50.5126 21.084V23.12H52.1265C52.4248 23.139 52.7192 23.0443 52.9504 22.855C53.0509 22.7562 53.1291 22.6369 53.1795 22.5052C53.2299 22.3736 53.2513 22.2326 53.2424 22.0919C53.2424 21.4166 52.8598 21.079 52.0945 21.079L50.5126 21.084Z" fill="#191C38"/>
<path d="M55.4404 19.6221H62.0142V21.2579H59.6508V27.3354H57.8106V21.2579H55.4472L55.4404 19.6221Z" fill="#191C38"/>
<path d="M67.7219 21.2311V19.6172H69.4658V27.3288H67.4957L65.61 24.253C65.0326 23.2929 64.632 22.5923 64.408 22.1512C64.4362 23.1404 64.4508 24.3284 64.4519 25.7149V27.3288H62.708V19.6222H64.6798L66.5638 22.6981C67.1063 23.5929 67.507 24.3002 67.7658 24.8202C67.7377 23.8174 67.7231 22.621 67.7219 21.2311Z" fill="#191C38"/>
<path d="M76.5378 19.6221V21.2579H72.4861V22.6541H76.1782V24.192H72.4861V25.6979H76.5378V27.3337H70.646V19.6221H76.5378Z" fill="#191C38"/>
<path d="M83.6972 25.4159L83.7513 26.4998C83.7438 26.7925 83.8187 27.0815 83.9674 27.3337H82.0833C81.9575 27.0704 81.8945 26.7815 81.8993 26.4896L81.8672 25.6236C81.8521 25.1982 81.7575 24.9027 81.5803 24.7407C81.403 24.5786 81.1194 24.4976 80.7362 24.4976H79.2421V27.3354H77.4121V19.6221H81.062C81.9623 19.6221 82.6534 19.8224 83.1351 20.2231C83.3725 20.4208 83.5611 20.6707 83.6861 20.9533C83.8112 21.2358 83.8693 21.5435 83.8559 21.8522C83.8559 22.7402 83.4406 23.3507 82.6101 23.6839C82.9506 23.772 83.2462 23.9839 83.439 24.2781C83.6129 24.632 83.7013 25.0217 83.6972 25.4159ZM79.2354 21.084V23.12H80.8493C81.1469 23.1386 81.4406 23.0439 81.6714 22.855C81.7726 22.7565 81.8512 22.6373 81.9019 22.5056C81.9526 22.3739 81.9742 22.2328 81.9652 22.0919C81.9652 21.4166 81.5825 21.079 80.8172 21.079L79.2354 21.084Z" fill="#191C38"/>
<path d="M87.7477 27.506C86.6718 27.506 85.8417 27.268 85.2576 26.7919C84.6735 26.3158 84.3775 25.6513 84.3696 24.7982H86.1456C86.1456 25.2759 86.2908 25.6068 86.5626 25.7959C86.8344 25.985 87.2497 26.0761 87.8135 26.0761C88.6869 26.0761 89.1236 25.7801 89.1236 25.1881C89.1307 25.0749 89.108 24.9618 89.0576 24.8602C89.0072 24.7585 88.931 24.6719 88.8366 24.6091C88.6453 24.483 88.2789 24.3705 87.7376 24.2714L87.1096 24.1516C85.391 23.8635 84.5317 23.0588 84.5317 21.7375C84.5201 21.417 84.5852 21.0984 84.7218 20.8082C84.8584 20.5181 85.0623 20.2648 85.3167 20.0695C85.8401 19.6576 86.5817 19.4517 87.5417 19.4517C88.5682 19.4517 89.3521 19.6683 89.8934 20.1016C90.4348 20.5349 90.7234 21.1539 90.7594 21.9586H89.0257C89.0288 21.8022 88.9969 21.647 88.9324 21.5045C88.8678 21.3619 88.7722 21.2356 88.6526 21.1348C88.4275 20.9603 88.0685 20.8737 87.5755 20.8748C86.7877 20.8748 86.3938 21.1348 86.3938 21.6547C86.3878 21.7702 86.4109 21.8853 86.4611 21.9894C86.5112 22.0936 86.5868 22.1834 86.6808 22.2507C86.9963 22.4322 87.3445 22.5498 87.7055 22.5968L88.3555 22.7166C89.2862 22.8821 89.9615 23.151 90.3813 23.5236C90.8011 23.8961 91.0127 24.4104 91.0161 25.0666C91.0161 25.8544 90.7268 26.4571 90.1483 26.8746C89.5698 27.2922 88.7696 27.5026 87.7477 27.506Z" fill="#191C38"/>
</svg>
