<svg width="110" height="34" viewBox="0 0 110 34" fill="none" xmlns="http://www.w3.org/2000/svg">
<path d="M0 0V34H13.5V27.2H27V0H0Z" fill="white"/>
<path d="M34 7H38.6916C39.8795 7 40.8112 7.30162 41.4867 7.90487C42.1622 8.50811 42.5 9.32996 42.5 10.3704C42.5 11.4098 42.1622 12.2316 41.4867 12.836C40.8112 13.4403 39.8795 13.7425 38.6916 13.7425H36.4477V17H34V7ZM36.4477 11.7335H38.5324C38.9391 11.7582 39.3404 11.6324 39.6553 11.3815C39.914 11.1046 40.0573 10.7442 40.0573 10.3704C40.0573 9.99666 39.914 9.63626 39.6553 9.35929C39.3416 9.11118 38.9433 8.98618 38.5393 9.00897H36.4477V11.7335Z" fill="white"/>
<path d="M51.1501 14.5145L51.2198 15.9191C51.2104 16.2986 51.3075 16.6731 51.5 17H49.0591C48.8958 16.6582 48.8141 16.2831 48.8203 15.9042L48.7789 14.7818C48.7612 14.2284 48.6374 13.8465 48.4074 13.6362C48.1786 13.4254 47.8105 13.3208 47.3064 13.3208H45.3696V17H43V7H47.7276C48.8972 7 49.7926 7.25956 50.4139 7.77868C51.0351 8.2978 51.3458 9.00288 51.3458 9.8939C51.3458 11.045 50.808 11.8359 49.7323 12.2665C50.2464 12.4358 50.6046 12.6937 50.8069 13.0402C51.0092 13.3866 51.1236 13.8781 51.1501 14.5145ZM45.3696 8.89607V11.5359H47.4606C47.8466 11.5602 48.2275 11.4375 48.5268 11.1923C48.6582 11.0636 48.7601 10.9079 48.8254 10.7359C48.8907 10.5638 48.9178 10.3796 48.9049 10.1961C48.9049 9.32498 48.4074 8.88942 47.4125 8.88942L45.3696 8.89607Z" fill="white"/>
<path d="M57.25 17.4999C55.6859 17.4999 54.4198 17.0201 53.4519 16.0604C52.484 15.1008 52 13.831 52 12.2508C52 10.6796 52.484 9.40923 53.4519 8.43959C54.4198 7.46996 55.6859 6.99015 57.25 7.00015C58.8119 7.00015 60.0773 7.47997 61.0464 8.43959C62.0155 9.39922 62.5 10.6696 62.5 12.2508C62.5 13.8221 62.0155 15.0919 61.0464 16.0604C60.0773 17.029 58.8119 17.5088 57.25 17.4999ZM55.2795 14.5776C55.5206 14.8567 55.8234 15.078 56.1649 15.2248C56.5064 15.3717 56.8775 15.4401 57.25 15.425C57.6244 15.4374 57.9969 15.3678 58.3404 15.2213C58.6839 15.0747 58.9898 14.8548 59.2357 14.5776C59.7333 14.0216 59.9827 13.2433 59.9838 12.2425C59.9849 11.2417 59.7356 10.4634 59.2357 9.90738C58.99 9.63044 58.6844 9.41069 58.3412 9.26412C57.998 9.11756 57.6258 9.04785 57.2517 9.06007C56.8792 9.0449 56.5081 9.11333 56.1666 9.26017C55.8251 9.407 55.5223 9.62836 55.2812 9.90738C54.7814 10.4634 54.5321 11.2417 54.5332 12.2425C54.5343 13.2433 54.7831 14.0216 55.2795 14.5776Z" fill="white"/>
<path d="M63.5 7H68.1924C69.3777 7 70.3087 7.30162 70.9852 7.90487C71.6617 8.50811 72 9.32996 72 10.3704C72 11.4098 71.6617 12.2316 70.9852 12.836C70.3087 13.4403 69.3777 13.7425 68.1924 13.7425H65.9472V17H63.5V7ZM65.9472 11.7335H68.0315C68.4381 11.7582 68.8393 11.6324 69.1541 11.3815C69.2917 11.2508 69.3985 11.0927 69.4673 10.9182C69.5361 10.7437 69.5653 10.5569 69.5528 10.3704C69.5653 10.1834 69.5355 9.99595 69.4654 9.82129C69.3954 9.64662 69.2868 9.48893 69.1473 9.35929C68.8337 9.11104 68.4355 8.98602 68.0315 9.00897H65.9472V11.7335Z" fill="white"/>
<path d="M81 7V9.12056H75.4859V10.9339H80.4993V12.9266H75.4859V14.8794H80.9861V17H73V7H81Z" fill="white"/>
<path d="M89.6485 14.5145L89.7198 15.9191C89.7096 16.2987 89.8067 16.6734 90 17H87.5596C87.3963 16.6582 87.3146 16.2831 87.3208 15.9042L87.2794 14.7818C87.2595 14.229 87.1368 13.8471 86.9064 13.6362C86.6759 13.4254 86.3112 13.3208 85.8055 13.3208H83.8708V17H81.5V7H86.2266C87.396 7 88.2913 7.25956 88.9124 7.77868C89.5336 8.2978 89.8447 9.00288 89.8458 9.8939C89.8458 11.045 89.3081 11.8359 88.2327 12.2665C88.7466 12.4358 89.1042 12.6937 89.3054 13.0402C89.5065 13.3866 89.6209 13.8781 89.6485 14.5145ZM83.8708 8.89607V11.5359H85.9597C86.3457 11.5606 86.7266 11.4378 87.0258 11.1923C87.1576 11.0639 87.2599 10.9082 87.3255 10.7362C87.3911 10.5641 87.4183 10.3798 87.4054 10.1961C87.4054 9.32498 86.908 8.88942 85.9133 8.88942L83.8708 8.89607Z" fill="white"/>
<path d="M90 7H98.5V9.12021H95.4345V17H93.0556V9.12021H90.005L90 7Z" fill="white"/>
<path d="M104.986 8.43165L105.842 7H108.5L104.728 13.1131V17H102.315V13.1131L98.5 7.0083H101.224L102.109 8.45322L102.852 9.71732C102.928 9.85667 103.02 10.0209 103.13 10.215C103.24 10.4091 103.328 10.5468 103.395 10.6629C103.463 10.779 103.519 10.8686 103.564 10.9449C104.102 9.97169 104.576 9.13393 104.986 8.43165Z" fill="white"/>
<path d="M34 19.5H37.5883C38.4962 19.5 39.2084 19.7417 39.725 20.225C40.2417 20.7084 40.5 21.3657 40.5 22.197C40.5 23.0271 40.2411 23.6856 39.725 24.1672C39.209 24.6489 38.4962 24.8923 37.5883 24.8923H35.8623V27.5H34V19.5ZM35.871 23.2863H37.4675C37.7801 23.3076 38.0888 23.2067 38.3305 23.0044C38.5286 22.7832 38.6384 22.4951 38.6384 22.1961C38.6384 21.8972 38.5286 21.6091 38.3305 21.3879C38.0911 21.1888 37.7868 21.0881 37.4778 21.106H35.883L35.871 23.2863Z" fill="white"/>
<path d="M47.5 27.5H45.5418L45.0829 26.099H41.842L41.3934 27.5H39.5L42.3674 19.5H44.5661L47.5 27.5ZM42.8058 23.1515L42.3571 24.5228H44.5576L44.109 23.1515C43.9691 22.7464 43.7502 22.0721 43.4522 21.1287C43.0656 22.35 42.8501 23.0242 42.8058 23.1515Z" fill="white"/>
<path d="M54.2308 25.5092L54.2843 26.6333C54.2774 26.9371 54.3521 27.2368 54.5 27.4983H52.6326C52.5087 27.2249 52.4464 26.9254 52.4504 26.6228L52.4186 25.7246C52.4052 25.2833 52.3099 24.9769 52.1344 24.8088C51.9589 24.6407 51.678 24.5567 51.2985 24.5567H49.8173V27.5H48V19.5H51.6145C52.5061 19.5 53.191 19.7078 53.6691 20.1233C53.9038 20.3288 54.09 20.5881 54.2136 20.8811C54.3371 21.1741 54.3945 21.493 54.3813 21.813C54.3813 22.734 53.97 23.3672 53.1475 23.7127C53.485 23.8037 53.7778 24.0235 53.9684 24.3291C54.1437 24.6952 54.2336 25.0996 54.2308 25.5092ZM49.8122 21.0163V23.1279H51.4105C51.7059 23.1476 51.9974 23.0494 52.2263 22.853C52.3259 22.7506 52.4033 22.6269 52.4532 22.4903C52.5031 22.3537 52.5244 22.2075 52.5156 22.0616C52.5156 21.3612 52.1366 21.0111 51.3787 21.0111L49.8122 21.0163Z" fill="white"/>
<path d="M55 19.5H61.5V21.1967H59.1631V27.5H57.3436V21.1967H55.0067L55 19.5Z" fill="white"/>
<path d="M67.1936 21.1743V19.5H69V27.5H66.9593L65.006 24.3091C64.4079 23.3132 63.9929 22.5864 63.7609 22.1287C63.7901 23.155 63.8052 24.3873 63.8064 25.8257V27.5H62V19.5052H64.0425L65.994 22.6961C66.5559 23.6243 66.9709 24.3581 67.2391 24.8976C67.2099 23.8573 67.1948 22.6162 67.1936 21.1743Z" fill="white"/>
<path d="M76 19.5V21.197H71.8739V22.6454H75.6338V24.2408H71.8739V25.803H76V27.5H70V19.5H76Z" fill="white"/>
<path d="M83.2322 25.5092L83.2857 26.6333C83.2783 26.9369 83.3525 27.2366 83.5 27.4983H81.6319C81.5071 27.2251 81.4446 26.9255 81.4494 26.6228L81.4176 25.7246C81.4025 25.2833 81.3088 24.9769 81.133 24.8088C80.9573 24.6407 80.676 24.5567 80.296 24.5567H78.8146V27.5H77V19.5H80.6191C81.5119 19.5 82.1971 19.7078 82.6747 20.1233C82.9102 20.3284 83.0972 20.5876 83.2211 20.8807C83.3451 21.1737 83.4027 21.4928 83.3895 21.813C83.3895 22.734 82.9777 23.3672 82.1541 23.7127C82.4918 23.8042 82.7849 24.0239 82.976 24.3291C83.1485 24.6961 83.2362 25.1003 83.2322 25.5092ZM78.8079 21.0163V23.1279H80.4082C80.7033 23.1472 80.9946 23.049 81.2234 22.853C81.3237 22.7509 81.4017 22.6273 81.452 22.4907C81.5022 22.3541 81.5236 22.2077 81.5147 22.0616C81.5147 21.3612 81.1352 21.0111 80.3764 21.0111L78.8079 21.0163Z" fill="white"/>
<path d="M87.3036 27.5C86.2514 27.5 85.4397 27.2636 84.8684 26.7907C84.2972 26.3179 84.0077 25.6578 84 24.8104H85.7369C85.7369 25.285 85.8789 25.6136 86.1447 25.8014C86.4105 25.9892 86.8166 26.0798 87.368 26.0798C88.2222 26.0798 88.6492 25.7858 88.6492 25.1978C88.6562 25.0853 88.634 24.973 88.5847 24.872C88.5354 24.7711 88.4609 24.6851 88.3686 24.6226C88.1814 24.4974 87.8232 24.3856 87.2938 24.2873L86.6796 24.1682C84.9989 23.882 84.1585 23.0828 84.1585 21.7704C84.1471 21.4521 84.2109 21.1356 84.3444 20.8474C84.478 20.5592 84.6775 20.3077 84.9262 20.1137C85.438 19.7046 86.1634 19.5 87.1022 19.5C88.106 19.5 88.8727 19.7152 89.4021 20.1456C89.9315 20.5759 90.2138 21.1908 90.249 21.99H88.5535C88.5565 21.8347 88.5253 21.6805 88.4622 21.539C88.3991 21.3974 88.3056 21.2719 88.1886 21.1718C87.9685 20.9985 87.6174 20.9124 87.1353 20.9135C86.3648 20.9135 85.9796 21.1718 85.9796 21.6882C85.9737 21.8029 85.9963 21.9172 86.0453 22.0206C86.0944 22.1241 86.1683 22.2133 86.2602 22.2801C86.5688 22.4605 86.9093 22.5773 87.2624 22.6239L87.898 22.7429C88.8083 22.9072 89.4687 23.1744 89.8792 23.5444C90.2898 23.9145 90.4967 24.4253 90.5 25.077C90.5 25.8595 90.2171 26.4582 89.6514 26.8729C89.0856 27.2876 88.3031 27.4966 87.3036 27.5Z" fill="white"/>
</svg>
