<svg width="19" height="15" viewBox="0 0 19 15" fill="none" xmlns="http://www.w3.org/2000/svg">
<path fill-rule="evenodd" clip-rule="evenodd" d="M5.80311 7.01471C6.49396 7.33824 7.03281 7.82353 7.41969 8.47059C7.80656 9.11765 8 9.88235 8 10.7647C8 12.0294 7.62695 13.0515 6.88083 13.8309C6.13471 14.6103 5.18135 15 4.02073 15C2.8601 15 1.89983 14.6029 1.1399 13.8088C0.379962 13.0147 0 12 0 10.7647C0 10.1765 0.0690839 9.58824 0.207254 9C0.345424 8.41176 0.649393 7.52942 1.11917 6.35294L3.52332 0H7.62694L5.80311 7.01471ZM16.8031 7.01471C17.494 7.33824 18.0328 7.82353 18.4197 8.47059C18.8066 9.11765 19 9.88235 19 10.7647C19 12.0294 18.6269 13.0515 17.8808 13.8309C17.1347 14.6103 16.1814 15 15.0207 15C13.8601 15 12.8998 14.6029 12.1399 13.8088C11.38 13.0147 11 12 11 10.7647C11 10.1765 11.0691 9.58824 11.2073 9C11.3454 8.41176 11.6494 7.52942 12.1192 6.35294L14.5233 0H18.6269L16.8031 7.01471Z" fill="#D48E49"/>
</svg>
