<svg width="32" height="32" viewBox="0 0 32 32" fill="none" xmlns="http://www.w3.org/2000/svg">
<circle cx="16.0003" cy="15.9998" r="13.3333" fill="#1DA1F2"/>
<path fill-rule="evenodd" clip-rule="evenodd" d="M24 10.8726C23.4118 11.1339 22.7787 11.3099 22.1148 11.3894C22.7926 10.983 23.3131 10.3398 23.5579 9.57348C22.9243 9.94999 22.2209 10.2225 21.4738 10.3702C20.8749 9.7324 20.0211 9.3335 19.0777 9.3335C17.265 9.3335 15.7952 10.8033 15.7952 12.6159C15.7952 12.873 15.8245 13.1236 15.8805 13.3642C13.1522 13.2276 10.7337 11.9205 9.11459 9.93452C8.83194 10.4193 8.67036 10.983 8.67036 11.5845C8.67036 12.7231 9.24898 13.7279 10.1305 14.3166C9.59189 14.2996 9.08633 14.1518 8.64316 13.906V13.9471C8.64316 15.5379 9.77535 16.8642 11.276 17.1666C11.0009 17.2412 10.7108 17.2818 10.4116 17.2818C10.1999 17.2818 9.994 17.261 9.79348 17.2226C10.2111 18.5265 11.4238 19.4758 12.8599 19.5024C11.7368 20.3824 10.3214 20.9077 8.78341 20.9077C8.51783 20.9077 8.25652 20.8922 8 20.8613C9.4527 21.7924 11.1779 22.3364 13.0317 22.3364C19.0691 22.3364 22.3708 17.3346 22.3708 12.9972C22.3708 12.8549 22.3681 12.713 22.3612 12.5727C23.0033 12.1088 23.56 11.5307 24 10.8726Z" fill="white"/>
</svg>
